<svg xmlns="http://www.w3.org/2000/svg" width="768" height="768" viewBox="288 0 768 768" version="1.1"><path d="M 609 154.048 C 605.975 155.695, 599.225 160.215, 594 164.092 C 588.775 167.969, 580.366 173.594, 575.313 176.592 C 565.123 182.638, 559.547 186.832, 550.042 195.601 C 539.810 205.041, 518.858 229.107, 516.759 233.833 C 514.722 238.416, 513.085 252.994, 514.606 253.009 C 515.098 253.014, 516.767 251.551, 518.316 249.759 L 521.133 246.500 520.472 251.500 C 519.467 259.105, 511.483 279.817, 503.319 296 C 499.295 303.975, 496.002 310.691, 496.001 310.924 C 495.997 312.146, 501.733 305.753, 505.208 300.662 C 509.984 293.667, 514.686 283.541, 518.498 272.043 C 521.009 264.470, 521.401 263.842, 522.241 266.043 C 524.613 272.250, 521.172 287.986, 514.778 300.176 C 510.966 307.443, 496.455 322.910, 484.891 332.032 C 479.938 335.939, 475.648 339.753, 475.359 340.507 C 474.460 342.848, 476.916 352.311, 480.041 358.546 C 481.682 361.821, 482.819 363.375, 482.568 362 C 481.257 354.817, 480.840 349, 481.636 349 C 482.128 349, 483.362 351.363, 484.379 354.250 C 487.405 362.847, 496.449 380.963, 501.759 389.064 C 507.730 398.173, 522.584 413.947, 530.948 420.061 C 537.904 425.145, 552.081 433.950, 553.359 433.980 C 554.378 434.004, 553.925 430.774, 551.121 418 C 548.973 408.213, 548.183 399.484, 549.341 398.326 C 550.538 397.129, 551.061 398.640, 553.466 410.235 C 557.679 430.553, 557.305 429.743, 563.284 431.471 C 573.462 434.413, 587.673 436.908, 600.500 438.004 C 607.650 438.615, 615.479 439.351, 617.898 439.641 L 622.296 440.167 621.622 450.833 C 621.252 456.700, 620.685 462.729, 620.361 464.232 C 619.439 468.521, 607.059 475.657, 590.583 481.398 C 589.339 481.831, 589.008 482.408, 589.639 483.039 C 590.945 484.345, 603.398 480.068, 611.533 475.518 C 614.994 473.583, 618.204 472, 618.668 472 C 619.131 472, 620.556 474.696, 621.834 477.992 C 625.245 486.789, 632.740 497.570, 640.833 505.323 C 647.776 511.973, 651.746 513.595, 648.334 508.386 C 646.712 505.912, 646.764 505.801, 652.095 500.359 C 655.068 497.324, 660.988 491.679, 665.251 487.814 L 673.002 480.786 677.543 485.837 C 682.965 491.867, 690.710 495.271, 697.916 494.791 L 702.500 494.485 695.517 491.005 C 687.079 486.800, 675.975 476.646, 672.926 470.347 C 670.458 465.248, 669.163 450.841, 670.663 445.159 L 671.545 441.818 699.022 441.872 C 714.135 441.902, 728.300 441.598, 730.500 441.198 L 734.500 440.469 740.717 424.984 C 744.136 416.468, 748.152 406.125, 749.641 402 C 752.815 393.206, 752.736 393.336, 754.064 394.664 C 755.457 396.057, 753.669 410.356, 750.353 424.341 C 748.617 431.662, 748.111 435.511, 748.795 436.195 C 750.167 437.567, 756.464 436.369, 762 433.683 C 765.209 432.126, 767.074 430.352, 768.500 427.500 C 769.600 425.300, 770.599 423.326, 770.720 423.114 C 770.840 422.901, 773.210 423.704, 775.985 424.898 C 782.177 427.562, 785.841 426.836, 794 421.328 C 801.112 416.526, 818.164 399.977, 822.060 394.096 C 826.515 387.370, 825.903 385.629, 816.500 378.281 C 812.100 374.843, 805.933 369.568, 802.796 366.561 C 797.688 361.663, 796.829 360.226, 794.565 352.796 C 792.101 344.705, 788.808 324.966, 789.935 325.034 C 790.246 325.053, 792.243 328.670, 794.373 333.073 C 798.286 341.162, 806.164 351.127, 807.562 349.756 C 807.980 349.347, 807.600 348.215, 806.718 347.241 C 801.778 341.782, 791.211 309.522, 790.262 297 C 789.928 292.602, 790.475 286.859, 791.953 279.240 C 794.048 268.434, 794.069 267.750, 792.473 262.240 C 789.703 252.682, 786.079 246.165, 780.402 240.532 C 776.408 236.571, 774.997 234.434, 774.990 232.337 C 774.974 227.620, 770.600 219.845, 764.381 213.480 C 761.147 210.169, 751.197 200.578, 742.272 192.168 C 729.413 180.051, 725.837 176.111, 725.047 173.188 C 724.499 171.160, 722.127 166.575, 719.776 163 L 715.500 156.500 708.500 156.591 C 700.578 156.694, 684.586 161.427, 665.291 169.380 C 659.126 171.921, 652.915 174, 651.488 174 C 649.663 174, 646.765 171.998, 641.698 167.238 C 629.056 155.362, 622.457 150.978, 617.300 151.027 C 615.760 151.041, 612.025 152.401, 609 154.048 M 608.652 158.615 C 605.986 160.003, 603.997 161.331, 604.233 161.566 C 604.469 161.802, 607.100 161.552, 610.081 161.011 C 614.099 160.282, 616.986 160.378, 621.250 161.382 C 624.413 162.128, 627 162.363, 627 161.905 C 627 160.223, 619.446 156.001, 616.518 156.047 C 614.858 156.072, 611.318 157.228, 608.652 158.615 M 692 163.865 C 685.675 165.358, 679.600 167.111, 678.500 167.760 L 676.500 168.939 678.500 168.954 C 679.600 168.963, 685.414 168.076, 691.419 166.985 C 697.425 165.893, 704.757 165, 707.712 165 C 712.727 165, 713.417 165.310, 718.058 169.651 C 720.793 172.209, 723.312 174.021, 723.657 173.677 C 724.288 173.045, 717.842 164.537, 715.023 162.282 C 712.621 160.360, 704.467 160.921, 692 163.865 M 548.587 204.250 C 538.007 214.923, 525.884 229.151, 526.302 230.406 C 527.103 232.808, 529.661 231.218, 533.972 225.642 C 536.462 222.420, 542.347 215.220, 547.049 209.642 C 551.751 204.064, 555.940 198.938, 556.358 198.250 C 558.170 195.270, 555.270 197.508, 548.587 204.250 M 755.056 212 C 759.214 218.154, 767.329 228, 768.243 228 C 770.106 228, 764.462 219.911, 758.708 214.332 C 753.989 209.758, 753.201 209.255, 755.056 212 M 647.008 215.750 C 647.033 231.545, 653.721 251.392, 665.746 271.356 C 669.983 278.390, 669.809 278.586, 658.523 279.527 C 649.497 280.278, 635.788 278.660, 632.305 276.430 C 627.317 273.239, 612.735 251.969, 606.429 238.690 C 604.112 233.810, 602.368 231.232, 601.780 231.820 C 600.233 233.367, 599.526 263.061, 600.905 268.538 C 601.566 271.161, 601.721 273.679, 601.251 274.149 C 600.781 274.619, 594.812 274.384, 587.949 273.627 C 575.157 272.214, 568.359 272.338, 561.674 274.106 C 554.289 276.059, 552.842 285.733, 555.932 312.500 C 557.074 322.400, 558.456 335, 559.002 340.500 C 561.434 364.993, 562.292 370.714, 564.406 376.538 C 568.996 389.182, 574.589 396.163, 588.397 406.481 C 597.864 413.556, 610.506 419.732, 627.500 425.583 C 639.352 429.663, 642.651 430.404, 649 430.410 C 658.419 430.418, 669.929 426.670, 688.732 417.471 C 712.420 405.883, 721.076 394.752, 728.369 366.500 C 731.331 355.023, 736.748 325.425, 738.069 313.500 C 740.276 293.570, 739.869 282.906, 736.543 273.500 C 732.913 263.235, 727.347 251, 726.307 250.999 C 725.863 250.998, 725.651 255.912, 725.836 261.919 C 726.166 272.618, 726.122 272.874, 723.686 274.470 C 719.908 276.946, 708.154 277.648, 704.254 275.631 C 700.151 273.510, 690.240 265.389, 681.643 257.107 C 673.707 249.460, 659.443 230.861, 652.509 219.119 C 649.872 214.654, 647.554 211, 647.357 211 C 647.161 211, 647.003 213.137, 647.008 215.750 M 781.333 256.601 C 781.948 259.465, 783.717 270.237, 784.678 276.971 C 785.109 279.991, 785.309 280.200, 786.213 278.583 C 788.047 275.307, 787.532 264.921, 785.285 259.879 C 782.772 254.237, 780.403 252.273, 781.333 256.601 M 575 282.096 C 562.986 284.438, 558.096 289.133, 562.548 294.053 C 564.005 295.663, 564.634 295.626, 573.298 293.428 C 585.201 290.408, 599.102 288, 604.631 288 C 609.990 288, 610.208 286.831, 605.250 284.666 C 597.148 281.129, 585.181 280.112, 575 282.096 M 696.500 282.487 C 689.492 284.388, 682 287.734, 682 288.964 C 682 289.631, 687.251 290.003, 696.750 290.008 C 704.862 290.013, 715.497 290.474, 720.381 291.034 C 725.266 291.594, 730.104 291.784, 731.131 291.458 C 736.289 289.821, 730.183 284.962, 719.932 282.546 C 712.090 280.697, 703.183 280.675, 696.500 282.487 M 583.805 301.711 C 582.028 301.982, 581.289 302.589, 581.635 303.492 C 582.505 305.759, 575.259 307.276, 571.801 305.551 C 568.480 303.894, 568.243 304.768, 571.048 308.334 L 573.096 310.938 570.548 311.577 C 567.710 312.290, 567.207 313.759, 569.500 314.638 C 570.355 314.966, 571 316.458, 571 318.107 C 571 319.698, 571.285 321, 571.634 321 C 571.982 321, 574.438 318.794, 577.092 316.099 C 582.422 310.683, 588.872 307.677, 594.091 308.175 L 597.500 308.500 593.804 310.685 C 588.657 313.726, 585.589 319.951, 585.708 327.107 C 585.859 336.206, 590.020 341.851, 598.198 344.053 C 606.547 346.301, 615 338.564, 615 328.673 C 615 326.168, 615.398 323.872, 615.884 323.572 C 616.370 323.271, 618.058 325.494, 619.634 328.510 C 623.108 335.159, 624.385 335.596, 622.553 329.510 C 618.682 316.648, 609.486 307.451, 596.994 303.949 C 592.846 302.786, 592.693 302.631, 595 301.944 C 597.727 301.132, 588.815 300.946, 583.805 301.711 M 703.500 302 C 703.160 302.550, 702.121 303.004, 701.191 303.010 C 697.867 303.029, 689.099 307.901, 684.987 312.013 C 680.994 316.006, 675.863 325.370, 674.446 331.250 C 673.386 335.648, 675.555 334.452, 677.400 329.622 C 678.320 327.215, 679.902 324.494, 680.916 323.576 C 682.689 321.972, 682.777 322.163, 683.177 328.442 C 683.812 338.406, 689.154 344.333, 697.500 344.333 C 706.014 344.333, 711.244 338.377, 711.829 328.012 C 712.318 319.366, 709.783 313.275, 704.514 310.438 C 700.288 308.162, 701.735 306.808, 707.500 307.643 C 712.580 308.379, 717.949 311.809, 722.091 316.964 C 726.056 321.897, 727.429 322.098, 726.589 317.622 C 726.056 314.783, 726.277 314.161, 727.978 313.716 C 730.782 312.983, 730.507 311.344, 727.452 310.577 L 724.904 309.938 726.952 307.334 C 729.780 303.739, 729.514 302.798, 726.206 304.696 C 722.858 306.618, 715.755 305.803, 716.602 303.595 C 716.907 302.800, 716.182 302.013, 714.807 301.645 C 711.189 300.676, 704.182 300.896, 703.500 302 M 751.681 316.100 C 750.130 316.520, 746.461 318.677, 743.525 320.893 C 737.843 325.184, 736.873 327.509, 737.016 336.500 C 737.051 338.700, 736.454 345.225, 735.689 351 C 734.154 362.595, 734.312 364, 737.157 364 C 743.155 364, 750.485 356.323, 756.597 343.641 C 762.045 332.336, 763.234 324.254, 760.165 319.393 C 757.933 315.858, 755.731 315.004, 751.681 316.100 M 535.007 318.492 C 529.710 324.131, 531.908 338.359, 540.013 350.899 C 544.260 357.470, 550.949 363, 554.650 363 C 556.849 363, 557 362.624, 557 357.147 C 557 353.927, 556.709 348.505, 556.352 345.096 C 555.780 339.623, 555.377 338.729, 552.902 337.449 C 548.783 335.319, 547.232 335.650, 545.483 339.033 C 543.822 342.246, 541.544 342.158, 542.459 338.916 C 542.757 337.862, 543.255 336.100, 543.567 335 C 544.040 333.333, 543.657 333, 541.267 333 C 539.690 333, 537.860 333.540, 537.200 334.200 C 536.267 335.133, 536 334.935, 536 333.307 C 536 328.822, 542.756 328.879, 550.309 333.427 L 556 336.854 556 331.016 C 556 325.659, 555.732 324.952, 552.750 322.434 C 548.932 319.212, 542.369 316.053, 539.424 316.022 C 538.283 316.010, 536.295 317.122, 535.007 318.492 M 592.359 318.507 C 592.006 319.427, 592.416 320.844, 593.286 321.714 C 595.410 323.838, 598.227 322.621, 597.820 319.754 C 597.426 316.977, 593.307 316.037, 592.359 318.507 M 699.359 318.507 C 699.011 319.414, 699.383 320.812, 700.186 321.614 C 702.187 323.615, 705.188 322.321, 704.803 319.623 C 704.424 316.965, 700.277 316.115, 699.359 318.507 M 746.500 331.368 C 743.750 332.660, 740.600 334.757, 739.500 336.028 L 737.500 338.339 739.500 337.541 C 744.461 335.561, 745.917 335.723, 747.131 338.389 C 747.786 339.825, 748.751 341, 749.277 341 C 750.138 341, 750.038 339.468, 748.887 335 C 748.336 332.863, 753.802 332.322, 754.613 334.433 C 755.612 337.038, 756.758 336.191, 756.212 333.250 C 755.309 328.384, 753.571 328.047, 746.500 331.368 M 579 337.423 C 579 341.091, 587.459 348, 591.950 348 C 595.077 348, 594.423 346.770, 589.715 343.795 C 587.361 342.308, 584.358 339.946, 583.043 338.545 C 580.358 335.688, 579 335.311, 579 337.423 M 715.723 338.505 C 714.746 339.848, 711.934 342.127, 709.473 343.569 C 702.199 347.832, 703.924 349.668, 711.677 345.914 C 715.777 343.930, 720 339.455, 720 337.096 C 720 335.175, 717.561 335.978, 715.723 338.505 M 785.657 339.745 C 784.800 341.132, 786.836 350.781, 788.158 351.598 C 788.804 351.997, 788.903 350.504, 788.439 347.357 C 787.510 341.057, 786.521 338.349, 785.657 339.745 M 804.352 378.508 C 805.721 382.137, 813.213 394, 814.136 394 C 814.635 394, 815.559 392.867, 816.191 391.481 C 817.203 389.259, 816.994 388.600, 814.419 385.888 C 812.814 384.198, 809.722 381.397, 807.550 379.665 C 804.368 377.127, 803.746 376.902, 804.352 378.508 M 621 392.025 C 621 393.483, 625.913 395.162, 628.941 394.738 C 631.279 394.412, 631.327 394.315, 629.500 393.617 C 628.400 393.198, 626.719 392.437, 625.764 391.927 C 623.461 390.698, 621 390.748, 621 392.025 M 664.685 393.528 C 657.158 395.169, 656.444 396.003, 662.583 395.986 C 668.916 395.969, 672 395.116, 672 393.383 C 672 392.623, 671.663 392.059, 671.250 392.130 C 670.837 392.202, 667.883 392.831, 664.685 393.528 M 644.738 403.692 C 642.106 404.378, 643.695 406, 647 406 C 650.278 406, 651.777 404.512, 649.412 403.605 C 647.743 402.964, 647.510 402.969, 644.738 403.692 M 744.735 425.016 C 741.376 434.378, 739.820 440.154, 740.480 440.813 C 741.779 442.112, 743.932 437.692, 745.557 430.390 C 747.485 421.724, 747.016 418.659, 744.735 425.016 M 660.500 439.494 C 657.750 441.337, 653.555 443.604, 651.179 444.532 C 645.870 446.605, 640.869 445.498, 632.333 440.357 C 629.266 438.511, 626.634 437, 626.483 437 C 626.332 437, 625.915 440.712, 625.556 445.250 C 625.198 449.788, 624.420 456.729, 623.827 460.676 L 622.750 467.851 629.967 481.676 C 637.580 496.258, 641.185 501.750, 643.803 502.754 C 645.995 503.596, 656.178 492.277, 662.209 482.295 C 666.788 474.716, 666.889 474.376, 665.860 470 C 665.233 467.339, 664.999 459.471, 665.287 450.750 C 665.554 442.637, 665.711 436.032, 665.636 436.071 C 665.561 436.110, 663.250 437.650, 660.500 439.494 M 490 538.967 C 478.809 540.443, 468.781 547.636, 463.800 557.758 C 460.816 563.823, 460.508 565.279, 460.582 572.982 C 460.671 582.111, 462.330 587.223, 467.372 593.905 C 470.944 598.638, 478.086 603.492, 483.739 605.027 C 486.969 605.905, 490.181 607.889, 493.728 611.196 C 496.603 613.878, 501.328 617.176, 504.228 618.526 C 513.593 622.886, 526.918 621.311, 532.350 615.202 C 534.169 613.156, 534.136 613.044, 530.416 608.593 L 526.631 604.065 523.447 606.033 C 519.719 608.337, 515.167 608.574, 512.474 606.604 C 510.670 605.285, 510.766 605.125, 514.222 603.681 C 519.698 601.392, 526.263 594.808, 529.564 588.294 C 532.242 583.008, 532.496 581.623, 532.460 572.500 C 532.426 564.113, 532.056 561.807, 530.167 558.205 C 522.575 543.733, 507.738 536.627, 490 538.967 M 544 572.500 L 544 605 561.750 605.129 C 585.406 605.301, 588.638 605.134, 594.500 603.434 C 600.580 601.671, 603.569 599.277, 605.520 594.605 C 608.667 587.076, 606.746 579.432, 600.374 574.122 L 596.500 570.893 598.770 569.020 C 603.587 565.046, 605.427 555.661, 602.501 550.002 C 600.540 546.209, 595.494 542.468, 590.500 541.104 C 588.196 540.474, 577.491 540.009, 565.250 540.006 L 544 540 544 572.500 M 637.639 543.250 C 635.001 549.427, 625.749 570.532, 621.746 579.500 C 614.587 595.542, 611.109 604.367, 611.619 605.192 C 611.893 605.636, 615.907 606, 620.539 606 L 628.959 606 630.838 602.250 C 631.871 600.188, 633.007 597.290, 633.362 595.811 C 634.164 592.471, 637.988 591.745, 652.430 592.193 L 662.361 592.500 665.002 599 L 667.644 605.500 677.072 605.500 C 682.834 605.500, 686.416 605.111, 686.285 604.500 C 686.166 603.950, 680.184 590.225, 672.990 574 C 665.796 557.775, 659.490 543.487, 658.977 542.250 C 658.101 540.140, 657.452 540, 648.535 540 L 639.027 540 637.639 543.250 M 694 572.347 L 694 604.777 697.585 605.450 C 699.557 605.820, 703.607 605.818, 706.585 605.446 L 712 604.770 712 588.385 C 712 579.373, 712.398 572, 712.885 572 C 713.372 572, 714.489 573.097, 715.367 574.438 C 716.246 575.779, 721.303 581.966, 726.607 588.188 C 742.969 607.384, 740.525 605.500, 749.053 605.500 L 756.500 605.500 756.764 572.750 L 757.027 540 748.014 540 L 739 540 738.923 552.250 C 738.853 563.409, 738.254 573.079, 737.593 573.740 C 737.450 573.883, 731.058 566.463, 723.388 557.250 L 709.443 540.500 701.722 540.208 L 694 539.916 694 572.347 M 772 572.500 L 772 605 781.500 605 L 791 605 791 596.696 C 791 588.518, 791.053 588.341, 794.502 584.998 C 796.598 582.966, 798.339 581.984, 798.839 582.552 C 799.298 583.073, 803.619 588.563, 808.439 594.750 L 817.204 606 827.043 606 C 832.455 606, 837.094 605.656, 837.354 605.236 C 837.614 604.816, 831.556 596.402, 823.892 586.539 L 809.957 568.607 814.751 563.553 C 817.388 560.774, 823.248 554.617, 827.773 549.872 C 832.298 545.127, 836 540.964, 836 540.622 C 836 540.280, 831.388 540.029, 825.750 540.065 L 815.500 540.130 803.656 553.065 C 797.141 560.179, 791.404 566, 790.906 566 C 790.408 566, 790 560.150, 790 553 L 790 540 781 540 L 772 540 772 572.500 M 563 559.599 L 563 566.199 571.896 565.849 C 578.910 565.574, 581.238 565.097, 582.896 563.595 C 585.668 561.085, 585.555 558.464, 582.545 555.455 C 580.322 553.231, 579.285 553, 571.545 553 L 563 553 563 559.599 M 489.450 555.407 C 482.772 558.315, 478.302 566.891, 479.377 574.731 C 480.786 585.012, 487.360 591, 497.238 591 C 507.039 591, 513.152 584.970, 513.809 574.657 C 514.414 565.165, 510.787 558.898, 502.746 555.538 C 498.281 553.673, 493.539 553.626, 489.450 555.407 M 647.561 560.083 C 647.283 560.862, 645.694 565.243, 644.028 569.818 C 642.363 574.393, 641 578.331, 641 578.568 C 641 578.806, 644.375 579, 648.500 579 C 652.625 579, 656 578.685, 656 578.300 C 656 577.063, 649.703 560.533, 648.870 559.583 C 648.403 559.050, 647.854 559.259, 647.561 560.083 M 563 585.500 L 563 592 573.277 592 C 585.426 592, 588 590.864, 588 585.500 C 588 580.136, 585.426 579, 573.277 579 L 563 579 563 585.500" stroke="none" fill="#0b0b0b" fill-rule="evenodd"/><path d="M 0 384.001 L 0 768.001 672.250 767.751 L 1344.500 767.500 1344.751 383.750 L 1345.003 -0 672.501 -0 L 0 0 0 384.001 M 0.495 384.500 C 0.495 595.700, 0.610 681.951, 0.750 576.169 C 0.890 470.386, 0.890 297.586, 0.750 192.169 C 0.610 86.751, 0.495 173.300, 0.495 384.500 M 609 154.048 C 605.975 155.695, 599.225 160.215, 594 164.092 C 588.775 167.969, 580.366 173.594, 575.313 176.592 C 565.123 182.638, 559.547 186.832, 550.042 195.601 C 539.810 205.041, 518.858 229.107, 516.759 233.833 C 514.722 238.416, 513.085 252.994, 514.606 253.009 C 515.098 253.014, 516.767 251.551, 518.316 249.759 L 521.133 246.500 520.472 251.500 C 519.467 259.105, 511.483 279.817, 503.319 296 C 499.295 303.975, 496.002 310.691, 496.001 310.924 C 495.997 312.146, 501.733 305.753, 505.208 300.662 C 509.984 293.667, 514.686 283.541, 518.498 272.043 C 521.009 264.470, 521.401 263.842, 522.241 266.043 C 524.613 272.250, 521.172 287.986, 514.778 300.176 C 510.966 307.443, 496.455 322.910, 484.891 332.032 C 479.938 335.939, 475.648 339.753, 475.359 340.507 C 474.460 342.848, 476.916 352.311, 480.041 358.546 C 481.682 361.821, 482.819 363.375, 482.568 362 C 481.257 354.817, 480.840 349, 481.636 349 C 482.128 349, 483.362 351.363, 484.379 354.250 C 487.405 362.847, 496.449 380.963, 501.759 389.064 C 507.730 398.173, 522.584 413.947, 530.948 420.061 C 537.904 425.145, 552.081 433.950, 553.359 433.980 C 554.378 434.004, 553.925 430.774, 551.121 418 C 548.973 408.213, 548.183 399.484, 549.341 398.326 C 550.538 397.129, 551.061 398.640, 553.466 410.235 C 557.679 430.553, 557.305 429.743, 563.284 431.471 C 573.462 434.413, 587.673 436.908, 600.500 438.004 C 607.650 438.615, 615.479 439.351, 617.898 439.641 L 622.296 440.167 621.622 450.833 C 621.252 456.700, 620.685 462.729, 620.361 464.232 C 619.439 468.521, 607.059 475.657, 590.583 481.398 C 589.339 481.831, 589.008 482.408, 589.639 483.039 C 590.945 484.345, 603.398 480.068, 611.533 475.518 C 614.994 473.583, 618.204 472, 618.668 472 C 619.131 472, 620.556 474.696, 621.834 477.992 C 625.245 486.789, 632.740 497.570, 640.833 505.323 C 647.776 511.973, 651.746 513.595, 648.334 508.386 C 646.712 505.912, 646.764 505.801, 652.095 500.359 C 655.068 497.324, 660.988 491.679, 665.251 487.814 L 673.002 480.786 677.543 485.837 C 682.965 491.867, 690.710 495.271, 697.916 494.791 L 702.500 494.485 695.517 491.005 C 687.079 486.800, 675.975 476.646, 672.926 470.347 C 670.458 465.248, 669.163 450.841, 670.663 445.159 L 671.545 441.818 699.022 441.872 C 714.135 441.902, 728.300 441.598, 730.500 441.198 L 734.500 440.469 740.717 424.984 C 744.136 416.468, 748.152 406.125, 749.641 402 C 752.815 393.206, 752.736 393.336, 754.064 394.664 C 755.457 396.057, 753.669 410.356, 750.353 424.341 C 748.617 431.662, 748.111 435.511, 748.795 436.195 C 750.167 437.567, 756.464 436.369, 762 433.683 C 765.209 432.126, 767.074 430.352, 768.500 427.500 C 769.600 425.300, 770.599 423.326, 770.720 423.114 C 770.840 422.901, 773.210 423.704, 775.985 424.898 C 782.177 427.562, 785.841 426.836, 794 421.328 C 801.112 416.526, 818.164 399.977, 822.060 394.096 C 826.515 387.370, 825.903 385.629, 816.500 378.281 C 812.100 374.843, 805.933 369.568, 802.796 366.561 C 797.688 361.663, 796.829 360.226, 794.565 352.796 C 792.101 344.705, 788.808 324.966, 789.935 325.034 C 790.246 325.053, 792.243 328.670, 794.373 333.073 C 798.286 341.162, 806.164 351.127, 807.562 349.756 C 807.980 349.347, 807.600 348.215, 806.718 347.241 C 801.778 341.782, 791.211 309.522, 790.262 297 C 789.928 292.602, 790.475 286.859, 791.953 279.240 C 794.048 268.434, 794.069 267.750, 792.473 262.240 C 789.703 252.682, 786.079 246.165, 780.402 240.532 C 776.408 236.571, 774.997 234.434, 774.990 232.337 C 774.974 227.620, 770.600 219.845, 764.381 213.480 C 761.147 210.169, 751.197 200.578, 742.272 192.168 C 729.413 180.051, 725.837 176.111, 725.047 173.188 C 724.499 171.160, 722.127 166.575, 719.776 163 L 715.500 156.500 708.500 156.591 C 700.578 156.694, 684.586 161.427, 665.291 169.380 C 659.126 171.921, 652.915 174, 651.488 174 C 649.663 174, 646.765 171.998, 641.698 167.238 C 629.056 155.362, 622.457 150.978, 617.300 151.027 C 615.760 151.041, 612.025 152.401, 609 154.048 M 608.652 158.615 C 605.986 160.003, 603.997 161.331, 604.233 161.566 C 604.469 161.802, 607.100 161.552, 610.081 161.011 C 614.099 160.282, 616.986 160.378, 621.250 161.382 C 624.413 162.128, 627 162.363, 627 161.905 C 627 160.223, 619.446 156.001, 616.518 156.047 C 614.858 156.072, 611.318 157.228, 608.652 158.615 M 692 163.865 C 685.675 165.358, 679.600 167.111, 678.500 167.760 L 676.500 168.939 678.500 168.954 C 679.600 168.963, 685.414 168.076, 691.419 166.985 C 697.425 165.893, 704.757 165, 707.712 165 C 712.727 165, 713.417 165.310, 718.058 169.651 C 720.793 172.209, 723.312 174.021, 723.657 173.677 C 724.288 173.045, 717.842 164.537, 715.023 162.282 C 712.621 160.360, 704.467 160.921, 692 163.865 M 548.587 204.250 C 538.007 214.923, 525.884 229.151, 526.302 230.406 C 527.103 232.808, 529.661 231.218, 533.972 225.642 C 536.462 222.420, 542.347 215.220, 547.049 209.642 C 551.751 204.064, 555.940 198.938, 556.358 198.250 C 558.170 195.270, 555.270 197.508, 548.587 204.250 M 755.056 212 C 759.214 218.154, 767.329 228, 768.243 228 C 770.106 228, 764.462 219.911, 758.708 214.332 C 753.989 209.758, 753.201 209.255, 755.056 212 M 647.008 215.750 C 647.033 231.545, 653.721 251.392, 665.746 271.356 C 669.983 278.390, 669.809 278.586, 658.523 279.527 C 649.497 280.278, 635.788 278.660, 632.305 276.430 C 627.317 273.239, 612.735 251.969, 606.429 238.690 C 604.112 233.810, 602.368 231.232, 601.780 231.820 C 600.233 233.367, 599.526 263.061, 600.905 268.538 C 601.566 271.161, 601.721 273.679, 601.251 274.149 C 600.781 274.619, 594.812 274.384, 587.949 273.627 C 575.157 272.214, 568.359 272.338, 561.674 274.106 C 554.289 276.059, 552.842 285.733, 555.932 312.500 C 557.074 322.400, 558.456 335, 559.002 340.500 C 561.434 364.993, 562.292 370.714, 564.406 376.538 C 568.996 389.182, 574.589 396.163, 588.397 406.481 C 597.864 413.556, 610.506 419.732, 627.500 425.583 C 639.352 429.663, 642.651 430.404, 649 430.410 C 658.419 430.418, 669.929 426.670, 688.732 417.471 C 712.420 405.883, 721.076 394.752, 728.369 366.500 C 731.331 355.023, 736.748 325.425, 738.069 313.500 C 740.276 293.570, 739.869 282.906, 736.543 273.500 C 732.913 263.235, 727.347 251, 726.307 250.999 C 725.863 250.998, 725.651 255.912, 725.836 261.919 C 726.166 272.618, 726.122 272.874, 723.686 274.470 C 719.908 276.946, 708.154 277.648, 704.254 275.631 C 700.151 273.510, 690.240 265.389, 681.643 257.107 C 673.707 249.460, 659.443 230.861, 652.509 219.119 C 649.872 214.654, 647.554 211, 647.357 211 C 647.161 211, 647.003 213.137, 647.008 215.750 M 781.333 256.601 C 781.948 259.465, 783.717 270.237, 784.678 276.971 C 785.109 279.991, 785.309 280.200, 786.213 278.583 C 788.047 275.307, 787.532 264.921, 785.285 259.879 C 782.772 254.237, 780.403 252.273, 781.333 256.601 M 575 282.096 C 562.986 284.438, 558.096 289.133, 562.548 294.053 C 564.005 295.663, 564.634 295.626, 573.298 293.428 C 585.201 290.408, 599.102 288, 604.631 288 C 609.990 288, 610.208 286.831, 605.250 284.666 C 597.148 281.129, 585.181 280.112, 575 282.096 M 696.500 282.487 C 689.492 284.388, 682 287.734, 682 288.964 C 682 289.631, 687.251 290.003, 696.750 290.008 C 704.862 290.013, 715.497 290.474, 720.381 291.034 C 725.266 291.594, 730.104 291.784, 731.131 291.458 C 736.289 289.821, 730.183 284.962, 719.932 282.546 C 712.090 280.697, 703.183 280.675, 696.500 282.487 M 583.805 301.711 C 582.028 301.982, 581.289 302.589, 581.635 303.492 C 582.505 305.759, 575.259 307.276, 571.801 305.551 C 568.480 303.894, 568.243 304.768, 571.048 308.334 L 573.096 310.938 570.548 311.577 C 567.710 312.290, 567.207 313.759, 569.500 314.638 C 570.355 314.966, 571 316.458, 571 318.107 C 571 319.698, 571.285 321, 571.634 321 C 571.982 321, 574.438 318.794, 577.092 316.099 C 582.422 310.683, 588.872 307.677, 594.091 308.175 L 597.500 308.500 593.804 310.685 C 588.657 313.726, 585.589 319.951, 585.708 327.107 C 585.859 336.206, 590.020 341.851, 598.198 344.053 C 606.547 346.301, 615 338.564, 615 328.673 C 615 326.168, 615.398 323.872, 615.884 323.572 C 616.370 323.271, 618.058 325.494, 619.634 328.510 C 623.108 335.159, 624.385 335.596, 622.553 329.510 C 618.682 316.648, 609.486 307.451, 596.994 303.949 C 592.846 302.786, 592.693 302.631, 595 301.944 C 597.727 301.132, 588.815 300.946, 583.805 301.711 M 703.500 302 C 703.160 302.550, 702.121 303.004, 701.191 303.010 C 697.867 303.029, 689.099 307.901, 684.987 312.013 C 680.994 316.006, 675.863 325.370, 674.446 331.250 C 673.386 335.648, 675.555 334.452, 677.400 329.622 C 678.320 327.215, 679.902 324.494, 680.916 323.576 C 682.689 321.972, 682.777 322.163, 683.177 328.442 C 683.812 338.406, 689.154 344.333, 697.500 344.333 C 706.014 344.333, 711.244 338.377, 711.829 328.012 C 712.318 319.366, 709.783 313.275, 704.514 310.438 C 700.288 308.162, 701.735 306.808, 707.500 307.643 C 712.580 308.379, 717.949 311.809, 722.091 316.964 C 726.056 321.897, 727.429 322.098, 726.589 317.622 C 726.056 314.783, 726.277 314.161, 727.978 313.716 C 730.782 312.983, 730.507 311.344, 727.452 310.577 L 724.904 309.938 726.952 307.334 C 729.780 303.739, 729.514 302.798, 726.206 304.696 C 722.858 306.618, 715.755 305.803, 716.602 303.595 C 716.907 302.800, 716.182 302.013, 714.807 301.645 C 711.189 300.676, 704.182 300.896, 703.500 302 M 751.681 316.100 C 750.130 316.520, 746.461 318.677, 743.525 320.893 C 737.843 325.184, 736.873 327.509, 737.016 336.500 C 737.051 338.700, 736.454 345.225, 735.689 351 C 734.154 362.595, 734.312 364, 737.157 364 C 743.155 364, 750.485 356.323, 756.597 343.641 C 762.045 332.336, 763.234 324.254, 760.165 319.393 C 757.933 315.858, 755.731 315.004, 751.681 316.100 M 535.007 318.492 C 529.710 324.131, 531.908 338.359, 540.013 350.899 C 544.260 357.470, 550.949 363, 554.650 363 C 556.849 363, 557 362.624, 557 357.147 C 557 353.927, 556.709 348.505, 556.352 345.096 C 555.780 339.623, 555.377 338.729, 552.902 337.449 C 548.783 335.319, 547.232 335.650, 545.483 339.033 C 543.822 342.246, 541.544 342.158, 542.459 338.916 C 542.757 337.862, 543.255 336.100, 543.567 335 C 544.040 333.333, 543.657 333, 541.267 333 C 539.690 333, 537.860 333.540, 537.200 334.200 C 536.267 335.133, 536 334.935, 536 333.307 C 536 328.822, 542.756 328.879, 550.309 333.427 L 556 336.854 556 331.016 C 556 325.659, 555.732 324.952, 552.750 322.434 C 548.932 319.212, 542.369 316.053, 539.424 316.022 C 538.283 316.010, 536.295 317.122, 535.007 318.492 M 592.359 318.507 C 592.006 319.427, 592.416 320.844, 593.286 321.714 C 595.410 323.838, 598.227 322.621, 597.820 319.754 C 597.426 316.977, 593.307 316.037, 592.359 318.507 M 699.359 318.507 C 699.011 319.414, 699.383 320.812, 700.186 321.614 C 702.187 323.615, 705.188 322.321, 704.803 319.623 C 704.424 316.965, 700.277 316.115, 699.359 318.507 M 746.500 331.368 C 743.750 332.660, 740.600 334.757, 739.500 336.028 L 737.500 338.339 739.500 337.541 C 744.461 335.561, 745.917 335.723, 747.131 338.389 C 747.786 339.825, 748.751 341, 749.277 341 C 750.138 341, 750.038 339.468, 748.887 335 C 748.336 332.863, 753.802 332.322, 754.613 334.433 C 755.612 337.038, 756.758 336.191, 756.212 333.250 C 755.309 328.384, 753.571 328.047, 746.500 331.368 M 579 337.423 C 579 341.091, 587.459 348, 591.950 348 C 595.077 348, 594.423 346.770, 589.715 343.795 C 587.361 342.308, 584.358 339.946, 583.043 338.545 C 580.358 335.688, 579 335.311, 579 337.423 M 715.723 338.505 C 714.746 339.848, 711.934 342.127, 709.473 343.569 C 702.199 347.832, 703.924 349.668, 711.677 345.914 C 715.777 343.930, 720 339.455, 720 337.096 C 720 335.175, 717.561 335.978, 715.723 338.505 M 785.657 339.745 C 784.800 341.132, 786.836 350.781, 788.158 351.598 C 788.804 351.997, 788.903 350.504, 788.439 347.357 C 787.510 341.057, 786.521 338.349, 785.657 339.745 M 804.352 378.508 C 805.721 382.137, 813.213 394, 814.136 394 C 814.635 394, 815.559 392.867, 816.191 391.481 C 817.203 389.259, 816.994 388.600, 814.419 385.888 C 812.814 384.198, 809.722 381.397, 807.550 379.665 C 804.368 377.127, 803.746 376.902, 804.352 378.508 M 621 392.025 C 621 393.483, 625.913 395.162, 628.941 394.738 C 631.279 394.412, 631.327 394.315, 629.500 393.617 C 628.400 393.198, 626.719 392.437, 625.764 391.927 C 623.461 390.698, 621 390.748, 621 392.025 M 664.685 393.528 C 657.158 395.169, 656.444 396.003, 662.583 395.986 C 668.916 395.969, 672 395.116, 672 393.383 C 672 392.623, 671.663 392.059, 671.250 392.130 C 670.837 392.202, 667.883 392.831, 664.685 393.528 M 644.738 403.692 C 642.106 404.378, 643.695 406, 647 406 C 650.278 406, 651.777 404.512, 649.412 403.605 C 647.743 402.964, 647.510 402.969, 644.738 403.692 M 744.735 425.016 C 741.376 434.378, 739.820 440.154, 740.480 440.813 C 741.779 442.112, 743.932 437.692, 745.557 430.390 C 747.485 421.724, 747.016 418.659, 744.735 425.016 M 660.500 439.494 C 657.750 441.337, 653.555 443.604, 651.179 444.532 C 645.870 446.605, 640.869 445.498, 632.333 440.357 C 629.266 438.511, 626.634 437, 626.483 437 C 626.332 437, 625.915 440.712, 625.556 445.250 C 625.198 449.788, 624.420 456.729, 623.827 460.676 L 622.750 467.851 629.967 481.676 C 637.580 496.258, 641.185 501.750, 643.803 502.754 C 645.995 503.596, 656.178 492.277, 662.209 482.295 C 666.788 474.716, 666.889 474.376, 665.860 470 C 665.233 467.339, 664.999 459.471, 665.287 450.750 C 665.554 442.637, 665.711 436.032, 665.636 436.071 C 665.561 436.110, 663.250 437.650, 660.500 439.494 M 490 538.967 C 478.809 540.443, 468.781 547.636, 463.800 557.758 C 460.816 563.823, 460.508 565.279, 460.582 572.982 C 460.671 582.111, 462.330 587.223, 467.372 593.905 C 470.944 598.638, 478.086 603.492, 483.739 605.027 C 486.969 605.905, 490.181 607.889, 493.728 611.196 C 496.603 613.878, 501.328 617.176, 504.228 618.526 C 513.593 622.886, 526.918 621.311, 532.350 615.202 C 534.169 613.156, 534.136 613.044, 530.416 608.593 L 526.631 604.065 523.447 606.033 C 519.719 608.337, 515.167 608.574, 512.474 606.604 C 510.670 605.285, 510.766 605.125, 514.222 603.681 C 519.698 601.392, 526.263 594.808, 529.564 588.294 C 532.242 583.008, 532.496 581.623, 532.460 572.500 C 532.426 564.113, 532.056 561.807, 530.167 558.205 C 522.575 543.733, 507.738 536.627, 490 538.967 M 544 572.500 L 544 605 561.750 605.129 C 585.406 605.301, 588.638 605.134, 594.500 603.434 C 600.580 601.671, 603.569 599.277, 605.520 594.605 C 608.667 587.076, 606.746 579.432, 600.374 574.122 L 596.500 570.893 598.770 569.020 C 603.587 565.046, 605.427 555.661, 602.501 550.002 C 600.540 546.209, 595.494 542.468, 590.500 541.104 C 588.196 540.474, 577.491 540.009, 565.250 540.006 L 544 540 544 572.500 M 637.639 543.250 C 635.001 549.427, 625.749 570.532, 621.746 579.500 C 614.587 595.542, 611.109 604.367, 611.619 605.192 C 611.893 605.636, 615.907 606, 620.539 606 L 628.959 606 630.838 602.250 C 631.871 600.188, 633.007 597.290, 633.362 595.811 C 634.164 592.471, 637.988 591.745, 652.430 592.193 L 662.361 592.500 665.002 599 L 667.644 605.500 677.072 605.500 C 682.834 605.500, 686.416 605.111, 686.285 604.500 C 686.166 603.950, 680.184 590.225, 672.990 574 C 665.796 557.775, 659.490 543.487, 658.977 542.250 C 658.101 540.140, 657.452 540, 648.535 540 L 639.027 540 637.639 543.250 M 694 572.347 L 694 604.777 697.585 605.450 C 699.557 605.820, 703.607 605.818, 706.585 605.446 L 712 604.770 712 588.385 C 712 579.373, 712.398 572, 712.885 572 C 713.372 572, 714.489 573.097, 715.367 574.438 C 716.246 575.779, 721.303 581.966, 726.607 588.188 C 742.969 607.384, 740.525 605.500, 749.053 605.500 L 756.500 605.500 756.764 572.750 L 757.027 540 748.014 540 L 739 540 738.923 552.250 C 738.853 563.409, 738.254 573.079, 737.593 573.740 C 737.450 573.883, 731.058 566.463, 723.388 557.250 L 709.443 540.500 701.722 540.208 L 694 539.916 694 572.347 M 772 572.500 L 772 605 781.500 605 L 791 605 791 596.696 C 791 588.518, 791.053 588.341, 794.502 584.998 C 796.598 582.966, 798.339 581.984, 798.839 582.552 C 799.298 583.073, 803.619 588.563, 808.439 594.750 L 817.204 606 827.043 606 C 832.455 606, 837.094 605.656, 837.354 605.236 C 837.614 604.816, 831.556 596.402, 823.892 586.539 L 809.957 568.607 814.751 563.553 C 817.388 560.774, 823.248 554.617, 827.773 549.872 C 832.298 545.127, 836 540.964, 836 540.622 C 836 540.280, 831.388 540.029, 825.750 540.065 L 815.500 540.130 803.656 553.065 C 797.141 560.179, 791.404 566, 790.906 566 C 790.408 566, 790 560.150, 790 553 L 790 540 781 540 L 772 540 772 572.500 M 563 559.599 L 563 566.199 571.896 565.849 C 578.910 565.574, 581.238 565.097, 582.896 563.595 C 585.668 561.085, 585.555 558.464, 582.545 555.455 C 580.322 553.231, 579.285 553, 571.545 553 L 563 553 563 559.599 M 489.450 555.407 C 482.772 558.315, 478.302 566.891, 479.377 574.731 C 480.786 585.012, 487.360 591, 497.238 591 C 507.039 591, 513.152 584.970, 513.809 574.657 C 514.414 565.165, 510.787 558.898, 502.746 555.538 C 498.281 553.673, 493.539 553.626, 489.450 555.407 M 647.561 560.083 C 647.283 560.862, 645.694 565.243, 644.028 569.818 C 642.363 574.393, 641 578.331, 641 578.568 C 641 578.806, 644.375 579, 648.500 579 C 652.625 579, 656 578.685, 656 578.300 C 656 577.063, 649.703 560.533, 648.870 559.583 C 648.403 559.050, 647.854 559.259, 647.561 560.083 M 563 585.500 L 563 592 573.277 592 C 585.426 592, 588 590.864, 588 585.500 C 588 580.136, 585.426 579, 573.277 579 L 563 579 563 585.500" stroke="none" fill="#f5f5f5" fill-rule="evenodd"/></svg>